<?xml version="1.0" encoding="utf-8"?>
<!-- Generator: Adobe Illustrator 26.3.1, SVG Export Plug-In . SVG Version: 6.00 Build 0)  -->
<svg version="1.1" id="Calque_1" xmlns="http://www.w3.org/2000/svg" xmlns:xlink="http://www.w3.org/1999/xlink" x="0px" y="0px"
	 viewBox="0 0 500 500" style="enable-background:new 0 0 500 500;" xml:space="preserve">
<path d="M500,168.0192566c0-0.9997101-0.2562561-1.9247131-0.5693054-2.8176117
	c-5.7220459-65.9342804-61.3903198-117.8720398-129.094635-117.8720398h-11.9291992V21.63591
	c0-4.7607422-3.8599548-8.6206894-8.620697-8.6206894s-8.620697,3.8599472-8.620697,8.6206894v25.6936951H155.1724091V21.63591
	c0-4.7607422-3.8599396-8.6206894-8.6206818-8.6206894s-8.620697,3.8599472-8.620697,8.6206894v25.6936951h-8.2671051
	c-67.7042999,0-123.3725662,51.9377594-129.0946198,117.8720398C0.2562424,166.0945435,0,167.0195465,0,168.0192566
	c0,0.5977325,0.2241464,1.1207428,0.3399027,1.6837311C0.2246725,171.9286652,0,174.125412,0,176.3789673v181.5564575
	c0,71.1543579,58.1686096,129.0493469,129.6639252,129.0493469h240.6721344
	C441.8313904,486.9847717,500,429.0897827,500,357.9354248V176.3789673c0-2.2535553-0.2246704-4.4503021-0.3399048-6.6759796
	C499.7758484,169.1399994,500,168.6169891,500,168.0192566z M129.6639252,64.5709839h8.2671051v27.9246368
	c0,4.7607422,3.8599548,8.6206894,8.620697,8.6206894s8.6206818-3.8599472,8.6206818-8.6206894V64.5709839h185.9930573v27.9246368
	c0,4.7607422,3.8599548,8.6206894,8.620697,8.6206894s8.620697-3.8599472,8.620697-8.6206894V64.5709839h11.9291992
	c56.171814,0,102.7164001,41.2281952,110.9845581,94.8275909H18.679388
	C26.9475479,105.7991791,73.4921188,64.5709839,129.6639252,64.5709839z M370.3360596,469.7434082H129.6639252
	c-61.9906693,0-112.4225464-50.1582642-112.4225464-111.8079834V176.6399536H482.758606v181.2954712
	C482.758606,419.585144,432.3267517,469.7434082,370.3360596,469.7434082z"/>
</svg>
