<?xml version="1.0" encoding="utf-8"?>
<!-- Generator: Adobe Illustrator 26.3.1, SVG Export Plug-In . SVG Version: 6.00 Build 0)  -->
<svg version="1.1" id="Calque_1" xmlns="http://www.w3.org/2000/svg" xmlns:xlink="http://www.w3.org/1999/xlink" x="0px" y="0px"
	 viewBox="0 0 500 500" style="enable-background:new 0 0 500 500;" xml:space="preserve">
<path d="M494.4783936,73.3457031c-0.1569824-1.7962646-0.3174438-3.1796875-0.4416504-4.1196899
	c-0.0620728-0.4700317-0.1156006-0.8291626-0.1517944-1.0736084c-0.019043-0.1222534-0.0344849-0.2157593-0.0448608-0.2802124
	c-0.005188-0.0321655-0.010376-0.0570679-0.012085-0.074646c-0.001709-0.0087891-0.003479-0.0157471-0.003479-0.020874
	c-0.001709-0.0025024-0.001709-0.0049438-0.001709-0.0062256c0-0.0020142,0-0.00354-1.6992798,0.2924805
	c-1.7009888,0.2960205-1.7009888,0.2954102-1.7009888,0.2952881c0,0.0005493,0,0.0008545,0,0.0020142
	c0.001709,0.0022583,0.001709,0.0064087,0.003418,0.0123291c0.001709,0.0119019,0.005188,0.0310669,0.008606,0.0575562
	c0.008667,0.0528564,0.0224609,0.1348267,0.0397339,0.2453003c0.0327148,0.2209473,0.0827637,0.5561523,0.1414795,1.0016479
	c0.1172485,0.8909912,0.272522,2.2233276,0.4243164,3.9663696c0.3019409,3.486145,0.5831299,8.6143799,0.4916992,15.1398926
	c-0.1828613,13.0510864-1.8527832,31.687561-7.8218994,53.9541626
	c-11.9295044,44.512085-41.052124,103.6123657-109.9432373,161.6384277
	c-58.1451416,48.975769-132.9190674,77.4238281-200.0095215,93.9354248
	c-65.6750488,16.1611328-123.833374,20.847168-151.5669556,22.2080078l-0.2503052-8.201416L5,422.8001099l17.5475464,9.4297485
	l-0.2520752-8.2609253c27.8425903-1.3625488,86.2751465-6.0646362,152.2861328-22.307373
	c67.3424683-16.5718994,142.690918-45.1890259,201.4087524-94.6461792
	c69.4449463-58.4935303,98.9453125-118.2103882,111.0525513-163.3846436
	c6.0518799-22.5765991,7.7528687-41.5004883,7.939209-54.7992554
	C495.0753174,82.1820068,494.7888794,76.9379883,494.4783936,73.3457031z"/>
</svg>
