<?xml version="1.0" encoding="utf-8"?>
<!-- Generator: Adobe Illustrator 26.3.1, SVG Export Plug-In . SVG Version: 6.00 Build 0)  -->
<svg version="1.1" id="Calque_1" xmlns="http://www.w3.org/2000/svg" xmlns:xlink="http://www.w3.org/1999/xlink" x="0px" y="0px"
	 viewBox="0 0 500 500" style="enable-background:new 0 0 500 500;" xml:space="preserve">
<path d="M73.34571,5.5216c-1.79626,0.15698-3.17969,0.31744-4.11969,0.44165c-0.47003,0.06207-0.82916,0.1156-1.07361,0.15179
	c-0.12225,0.01904-0.21576,0.03448-0.28021,0.04486c-0.03217,0.00519-0.05707,0.01038-0.07465,0.01208
	c-0.00879,0.00171-0.01575,0.00348-0.02087,0.00348c-0.0025,0.00171-0.00494,0.00171-0.00623,0.00171
	c-0.00201,0-0.00354,0,0.29248,1.69928c0.29602,1.70099,0.29541,1.70099,0.29529,1.70099c0.00055,0,0.00085,0,0.00201,0
	c0.00226-0.00171,0.00641-0.00171,0.01233-0.00342c0.0119-0.00171,0.03107-0.00519,0.05756-0.00861
	c0.05286-0.00867,0.13483-0.02246,0.2453-0.03973c0.22095-0.03271,0.55615-0.08276,1.00165-0.14148
	c0.89099-0.11725,2.22333-0.27252,3.96637-0.42432c3.48615-0.30194,8.61438-0.58313,15.13989-0.4917
	c13.05109,0.18286,31.68756,1.85278,53.95417,7.8219c44.51208,11.9295,103.61237,41.05212,161.63841,109.94324
	c48.97577,58.14513,77.42383,132.91907,93.93542,200.00952c16.16113,65.67505,20.84717,123.83337,22.20801,151.56696
	l-8.20142,0.25031L422.80011,495l9.42975-17.54755l-8.26093,0.25208c-1.36255-27.84259-6.06464-86.27515-22.30737-152.28613
	c-16.5719-67.34247-45.18903-142.69093-94.64618-201.40875C248.52187,54.56469,188.80501,25.06432,143.63075,12.95708
	c-22.57661-6.05188-41.5005-7.75287-54.79926-7.93921C82.18201,4.92467,76.938,5.21111,73.34571,5.5216z"/>
</svg>
