<?xml version="1.0" encoding="utf-8"?>
<!-- Generator: Adobe Illustrator 26.3.1, SVG Export Plug-In . SVG Version: 6.00 Build 0)  -->
<svg version="1.1" id="Calque_1" xmlns="http://www.w3.org/2000/svg" xmlns:xlink="http://www.w3.org/1999/xlink" x="0px" y="0px"
	 viewBox="0 0 500 500" style="enable-background:new 0 0 500 500;" xml:space="preserve">
<path d="M426.6543,494.47839c1.79626-0.15698,3.17969-0.31744,4.11969-0.44165c0.47003-0.06207,0.82916-0.1156,1.07361-0.15179
	c0.12225-0.01904,0.21576-0.03448,0.28021-0.04486c0.03217-0.00519,0.05707-0.01038,0.07465-0.01208
	c0.00879-0.00171,0.01575-0.00348,0.02087-0.00348c0.0025-0.00171,0.00494-0.00171,0.00623-0.00171
	c0.00201,0,0.00354,0-0.29248-1.69928c-0.29602-1.70099-0.29541-1.70099-0.29529-1.70099c-0.00055,0-0.00085,0-0.00201,0
	c-0.00226,0.00171-0.00641,0.00171-0.01233,0.00342c-0.0119,0.00171-0.03107,0.00519-0.05756,0.00861
	c-0.05286,0.00867-0.13483,0.02246-0.2453,0.03973c-0.22095,0.03271-0.55615,0.08276-1.00165,0.14148
	c-0.89099,0.11725-2.22333,0.27252-3.96637,0.42432c-3.48615,0.30194-8.61438,0.58313-15.13989,0.4917
	c-13.05109-0.18286-31.68756-1.85278-53.95416-7.8219c-44.51208-11.9295-103.61238-41.05212-161.63844-109.94324
	c-48.97577-58.14514-77.42382-132.91908-93.93542-200.00954C85.52752,108.08208,80.84148,49.92376,79.48064,22.19018
	l8.20142-0.25031L77.19988,4.99999l-9.42975,17.54755l8.26093-0.25208c1.36255,27.84259,6.06464,86.27515,22.30737,152.28613
	c16.5719,67.34247,45.18902,142.69093,94.64617,201.40877c58.49353,69.44495,118.2104,98.94531,163.38466,111.05255
	c22.5766,6.05188,41.50049,7.75287,54.79926,7.93921C417.81799,495.07532,423.06201,494.78888,426.6543,494.47839z"/>
</svg>
