<?xml version="1.0" encoding="utf-8"?>
<!-- Generator: Adobe Illustrator 26.3.1, SVG Export Plug-In . SVG Version: 6.00 Build 0)  -->
<svg version="1.1" id="Calque_1" xmlns="http://www.w3.org/2000/svg" xmlns:xlink="http://www.w3.org/1999/xlink" x="0px" y="0px"
	 viewBox="0 0 500 500" style="enable-background:new 0 0 500 500;" xml:space="preserve">
<path d="M5.52161,426.65427c0.15698,1.79626,0.31744,3.17969,0.44165,4.11969c0.06207,0.47003,0.1156,0.82916,0.15179,1.07361
	c0.01904,0.12225,0.03448,0.21576,0.04486,0.28021c0.00519,0.03217,0.01038,0.05707,0.01208,0.07465
	c0.00171,0.00879,0.00348,0.01575,0.00348,0.02087c0.00171,0.0025,0.00171,0.00494,0.00171,0.00623
	c0,0.00201,0,0.00354,1.69928-0.29248c1.70099-0.29602,1.70099-0.29541,1.70099-0.29529c0-0.00055,0-0.00085,0-0.00201
	c-0.00171-0.00226-0.00171-0.00641-0.00342-0.01233c-0.00171-0.0119-0.00519-0.03107-0.00861-0.05756
	c-0.00867-0.05286-0.02246-0.13483-0.03973-0.2453c-0.03271-0.22095-0.08276-0.55615-0.14148-1.00165
	c-0.11725-0.89099-0.27252-2.22333-0.42432-3.96637c-0.30194-3.48615-0.58313-8.61438-0.4917-15.13989
	c0.18286-13.05109,1.85278-31.68756,7.8219-53.95416c11.9295-44.51208,41.05212-103.61235,109.94324-161.63841
	c58.14514-48.97577,132.91907-77.42383,200.00952-93.93542c65.67505-16.16113,123.83337-20.84717,151.56696-22.20801
	l0.25031,8.20142L495,77.19987l-17.54755-9.42975l0.25208,8.26093c-27.84259,1.36255-86.27515,6.06464-152.28613,22.30737
	c-67.34247,16.5719-142.69092,45.18903-201.40875,94.64618C54.5647,251.47813,25.06433,311.19498,12.95709,356.36923
	c-6.05188,22.5766-7.75287,41.50049-7.93921,54.79926C4.92468,417.81796,5.21112,423.06198,5.52161,426.65427z"/>
</svg>
