<?xml version="1.0" encoding="utf-8"?>
<!-- Generator: Adobe Illustrator 26.3.1, SVG Export Plug-In . SVG Version: 6.00 Build 0)  -->
<svg version="1.1" id="Calque_1" xmlns="http://www.w3.org/2000/svg" xmlns:xlink="http://www.w3.org/1999/xlink" x="0px" y="0px"
	 viewBox="0 0 500 500" style="enable-background:new 0 0 500 500;" xml:space="preserve">
<g>
	<path d="M491.6624451,112.6051254c-0.0813904-0.4679718-0.2034607-0.935936-0.3703003-1.3916931
		c-11.7886963-32.6518326-34.5033569-58.2231331-63.9730225-72.0179596
		c-19.9841919-9.2942162-42.218689-14.2098961-64.2985535-14.2098961c-46.6257019,0-90.1262207,21.1113777-113.1745758,54.3369827
		c-23.032074-32.7983284-66.2233124-53.592308-112.6292877-53.592308c-22.2589188,0-44.4893417,4.8709164-64.3148346,14.0959568
		C43.4729004,53.6006889,20.7622967,79.1272278,8.9492025,111.6976776
		c-13.6686821,37.595993-11.5811462,81.5278473,5.5871096,117.5083466
		C50.3296242,304.1538696,207.4075623,443.624054,238.89151,471.1323547
		c2.7793274,2.5066528,6.6329193,3.8820801,10.8486786,3.8820801l1.7091064-0.0162964
		c3.6582642-0.2604065,7.3857269-2.0264893,10.0836334-4.7773132
		c20.3870544-17.7583008,186.9423523-164.3090515,223.9197998-241.6333313
		C502.364624,193.1441345,504.6596985,149.8999939,491.6624451,112.6051254z M470.4127197,221.4011536
		c-29.001709,60.6484375-152.0076294,177.2005005-219.5412598,236.9455261l-1.3713531-0.0813599
		C230.6837921,441.8335876,64.6860123,295.5432739,29.5763378,222.027832
		c-15.2841825-32.0333099-17.1397705-71.1512146-4.9604416-104.6413193
		c10.2993259-28.3953705,29.9539051-50.576973,55.3339539-62.4551735
		c17.6199417-8.1995811,37.4210129-12.5333557,57.2668533-12.5333557c43.8708191,0,84.2298431,20.5945816,102.8304901,52.4976692
		l2.6368866,4.4761963c1.4974823,2.5392303,4.2279663,4.0977631,7.174118,4.1018295c0.0040741,0,0.0040741,0,0.0081482,0
		c2.9461517,0,5.6725616-1.5544662,7.174118-4.093689l3.0275269-5.1191406
		c18.7552795-31.9600601,59.1672058-52.6075401,102.9525757-52.6075401c19.6667786,0,39.4719238,4.3744659,57.2505798,12.6472931
		c25.0260315,11.715435,44.473053,33.4453392,54.8700562,61.2832298c0.0813904,0.4354095,0.1994019,0.8626862,0.3499451,1.2858887
		C487.5524902,150.3760986,485.656189,189.4573822,470.4127197,221.4011536z"/>
	<path d="M436.4871826,145.1430206c-4.2808533-1.7416534-9.1314392,0.325531-10.8568115,4.5820007
		c-28.8551941,71.0413361-97.5933228,116.9427032-175.1210785,116.9427032
		c-77.5765991,0-148.3371582-48.0987701-176.0773773-119.6853943c-1.6684036-4.2971497-6.5271072-6.4213104-10.7835693-4.7610474
		c-4.2930794,1.6643219-6.4213104,6.4904785-4.7610474,10.7835693
		c30.2102737,77.9509583,107.2171631,130.3306274,191.621994,130.3306274
		c84.3437958,0,159.1410675-49.9788055,190.5598907-127.3356476
		C442.8027039,151.7352295,440.7518005,146.8724518,436.4871826,145.1430206z"/>
</g>
</svg>
