<?xml version="1.0" encoding="utf-8"?>
<!-- Generator: Adobe Illustrator 26.3.1, SVG Export Plug-In . SVG Version: 6.00 Build 0)  -->
<svg version="1.1" id="Calque_1" xmlns="http://www.w3.org/2000/svg" xmlns:xlink="http://www.w3.org/1999/xlink" x="0px" y="0px"
	 viewBox="0 0 500 500" style="enable-background:new 0 0 500 500;" xml:space="preserve">
<g>
	<path d="M268.6497803,28.6478271h-0.0037842c-8.5889282,0.0038452-17.2271729,0.5007935-25.6643066,1.4795532
		c-4.2640991,0.4931641-7.3180542,4.3475952-6.8248291,8.6079102c0.4552002,3.9605713,3.8164062,6.8779297,7.7049561,6.8779297
		c0.2996826,0,0.6032104-0.0151978,0.9028931-0.0531006c7.852356-0.9066162,15.890625-1.3693848,23.887085-1.3733521
		c113.4833984,0.0010986,205.8092651,92.3276367,205.8092651,205.8113403
		c0,113.484314-92.3269653,205.8150635-205.8112793,205.8150635c-111.8453979,0-203.1332397-89.6781616-205.7527466-200.9015503
		l23.9668579,23.9639893c1.5174561,1.5175171,3.5053711,2.2762451,5.4932251,2.2762451
		c1.987915,0,3.9758301-0.758728,5.4932861-2.2762451c3.0349731-3.0349121,3.0349731-7.9515381,0-10.9865112l-34.3580933-34.3546143
		c0.3548584-4.4898682,0.8464966-8.958252,1.489563-13.3775635c0.614624-4.241333-2.3255005-8.1867676-6.5744019-8.8013306
		c-4.2109985-0.6828613-8.1906128,2.3217163-8.8051758,6.5706787c-0.6817627,4.6994629-1.2053223,9.4500122-1.5859985,14.2227783
		l-35.7401123,35.7400513c-3.0349121,3.0349731-3.0349121,7.9515991,0,10.9865112
		c3.0349731,3.0349731,7.9515991,3.0349731,10.9865723,0l24.093689-24.093689
		c2.5552368,119.8571167,100.8383179,216.5701904,221.293335,216.5701904C390.7040405,471.3521118,490,372.0561523,490,249.9981079
		C490,127.9437866,390.7040405,28.6478271,268.6497803,28.6478271z"/>
	<path d="M131.4017944,94.1268921c1.7640381,0,3.5357056-0.5956421,4.9924927-1.8209839
		c7.6290894-6.4037476,15.7817383-12.2991333,24.237854-17.5192261c3.6495361-2.2572632,4.7838135-7.0448608,2.5303955-10.694397
		c-2.2572632-3.6533203-7.0487061-4.7876587-10.694397-2.5303955c-9.0935059,5.6184082-17.864502,11.9577026-26.0664673,18.8470459
		c-3.2853394,2.7579956-3.7139893,7.6594238-0.9522095,10.9447632
		C126.9859009,93.182251,129.1862793,94.1268921,131.4017944,94.1268921z"/>
	<path d="M184.0619507,61.6036377c1.0280762,0,2.0713501-0.2086792,3.0766602-0.6411743
		c9.1276245-3.9416504,18.6307983-7.2421265,28.2515869-9.8180542c4.1464844-1.1077271,6.6085815-5.3642578,5.4970703-9.5107422
		c-1.1077881-4.1503296-5.3718872-6.6199951-9.5108032-5.4970703c-10.3529663,2.765564-20.5807495,6.3202515-30.3988037,10.5616455
		c-3.9378662,1.6995239-5.7550049,6.2747192-4.0516357,10.2125854
		C178.1931152,59.8471069,181.0535278,61.6036377,184.0619507,61.6036377z"/>
	<path d="M61.7572632,196.1732788c0.7435913,0.2200317,1.4946899,0.3262329,2.2307129,0.3262329
		c3.3422241,0,6.434082-2.1775513,7.4393921-5.5463867c2.8452759-9.5145264,6.4265137-18.9229126,10.6488647-27.9632568
		c1.8134155-3.8884888,0.1328125-8.5092163-3.7557373-10.326416c-3.8885498-1.8247681-8.5092163-0.1327515-10.326416,3.7557373
		c-4.5372314,9.7232666-8.3916016,19.8447876-11.453125,30.0877686
		C55.3117676,190.6193237,57.6486816,194.9440918,61.7572632,196.1732788z"/>
	<path d="M85.9268188,139.0896606c1.3164062,0.8687744,2.7997437,1.2822876,4.2679443,1.2822876
		c2.5265503,0,5.000061-1.229187,6.494751-3.4940186c5.4743042-8.3043823,11.6124878-16.2863159,18.2400513-23.7219238
		c2.8528442-3.2056274,2.5721436-8.1146851-0.6297607-10.9713135c-3.217041-2.8604736-8.1184692-2.5759277-10.9713135,0.6297607
		c-7.1283569,7.9970703-13.7255859,16.5783691-19.6133423,25.5125122
		C81.3554688,131.9082031,82.3455811,136.7299805,85.9268188,139.0896606z"/>
</g>
</svg>
