<?xml version="1.0" encoding="utf-8"?>
<!-- Generator: Adobe Illustrator 26.3.1, SVG Export Plug-In . SVG Version: 6.00 Build 0)  -->
<svg version="1.1" id="Calque_1" xmlns="http://www.w3.org/2000/svg" xmlns:xlink="http://www.w3.org/1999/xlink" x="0px" y="0px"
	 viewBox="0 0 500 500" style="enable-background:new 0 0 500 500;" xml:space="preserve">
<g>
	<path d="M250,0C143.324295,0,56.4480629,87.5020599,56.338028,195.0649261
		c0,181.0285492,187.984848,302.6312256,189.8829498,303.8347168C247.3763428,499.635498,248.6864471,500,250,500
		s2.6236572-0.364502,3.7790222-1.1003418c1.8981018-1.2035217,189.7901001-122.7511597,189.8829346-303.704071
		c0-0.0068817,0-0.0137482,0-0.0206299v-0.1100311c0-0.0068817,0-0.0206299,0-0.0275116C443.5863342,87.4814301,356.7410278,0,250,0
		z M250,484.4781494C223.7737885,466.4667664,70.4225388,354.2789917,70.4225388,195.0717926
		C70.5256958,95.276741,151.0817871,14.084507,250,14.084507c99.0007324,0,179.5465088,81.1991119,179.5774536,181.0285645
		C429.5361938,354.2927551,276.2227783,466.4736328,250,484.4781494z"/>
	<path d="M250,84.5070419c-60.1892548,0-109.1549225,48.9656754-109.1549225,109.1549301S189.8107452,302.8168945,250,302.8168945
		s109.1549377-48.9656677,109.1549377-109.1549225S310.18927,84.5070419,250,84.5070419z M250,288.7323914
		c-52.421463,0-95.0704193-42.6455231-95.0704193-95.0704193c0-52.421463,42.6489563-95.0704193,95.0704193-95.0704193
		s95.0704346,42.6489563,95.0704346,95.0704193C345.0704346,246.0868683,302.4214478,288.7323914,250,288.7323914z"/>
</g>
</svg>
