<?xml version="1.0" encoding="utf-8"?>
<!-- Generator: Adobe Illustrator 26.3.1, SVG Export Plug-In . SVG Version: 6.00 Build 0)  -->
<svg version="1.1" id="Calque_1" xmlns="http://www.w3.org/2000/svg" xmlns:xlink="http://www.w3.org/1999/xlink" x="0px" y="0px"
	 viewBox="0 0 500 500" style="enable-background:new 0 0 500 500;" xml:space="preserve">
<g>
	<path d="M250,0C112.1504898,0,0,112.1497726,0,250.0016022C0,387.8502197,112.1504898,500,250,500s250-112.1497803,250-249.9983978
		C500,112.1497726,387.8495178,0,250,0z M250,486.8421936c-130.5959625,0-236.8421021-106.2454529-236.8421021-236.8405914
		S119.4040375,13.1578102,250,13.1578102s236.8421021,106.2486725,236.8421021,236.8437958S380.5959473,486.8421936,250,486.8421936
		z"/>
	<path d="M375.0770874,244.3478546l-180.1340179-107.106369c-2.033432-1.2110596-4.5583496-1.2367554-6.6174927-0.0642395
		c-2.0559235,1.1692963-3.3247986,3.3536987-3.3247986,5.7179871v214.212738c0,2.3642883,1.2688751,4.5487061,3.3247986,5.7180176
		c1.0119019,0.5717773,2.1330261,0.8609009,3.2541351,0.8609009c1.1628876,0,2.3257599-0.3083801,3.3633575-0.9251709
		l180.1340179-107.106369c1.9949036-1.1821442,3.2156067-3.3344269,3.2156067-5.6537476
		S377.071991,245.530014,375.0770874,244.3478546z M198.1586609,345.5434875V154.4597168l160.683075,95.5418854
		L198.1586609,345.5434875z"/>
</g>
</svg>
