<?xml version="1.0" encoding="utf-8"?>
<!-- Generator: Adobe Illustrator 26.3.1, SVG Export Plug-In . SVG Version: 6.00 Build 0)  -->
<svg version="1.1" id="Calque_1" xmlns="http://www.w3.org/2000/svg" xmlns:xlink="http://www.w3.org/1999/xlink" x="0px" y="0px"
	 viewBox="0 0 500 500" style="enable-background:new 0 0 500 500;" xml:space="preserve">
<g>
	<path d="M250,500c-10.3795624,0-19.269165-6.7484741-22.1198578-16.7983398l-9.833847-34.5440674
		c-0.8473053-2.9952698-3.2097321-5.1597595-6.3117523-5.7937927c-3.1881866-0.6486206-6.2866211,0.459137-8.2864227,2.9661255
		l-22.3065491,28.116272c-6.5056305,8.2133179-17.3555298,10.982666-27.0098572,6.8723755
		c-9.6255951-4.0957336-15.0649109-13.4823914-13.8549805-23.9185181l4.1575775-35.6882324
		c0.499054-4.4164124-2.312149-6.8505249-3.5436249-7.6886292c-2.6676025-1.8146362-5.9383698-1.9603882-8.7639313-0.3935242
		l-31.3900223,17.468811c-9.1839981,5.1014404-20.2852173,3.447113-27.627388-4.1030273
		c-7.2990875-7.5064087-8.7316132-18.2704773-3.6477432-27.4312134l17.4775925-31.3811646
		c2.150589-3.8552551,0.5098267-7.1347351-0.2979965-8.3663635c-1.7556534-2.689209-4.717659-4.0665894-7.9525223-3.6876221
		L42.96875,359.7904053c-10.4585533,1.2389221-20.066206-4.5548706-23.990406-14.3423462
		c-3.9206123-9.7802124-1.1129951-20.2964783,7.1518841-26.7971802l28.1156635-22.2860107
		c3.5005455-2.7766418,3.227684-6.4570007,2.9476395-7.9145508c-0.5995789-3.1118774-2.8004341-5.509552-5.8880959-6.3986511
		l-34.5315399-9.8166504C6.7425895,269.385498,0,260.4506836,0,250s6.7425895-19.385498,16.7774868-22.2350159l34.5674438-9.8239288
		c3.0517578-0.8672485,5.2382507-3.2357788,5.841423-6.3403625c0.2872238-1.4648438,0.5744476-5.1743317-2.9476395-7.9728394
		l-28.1336174-22.2933197c-8.2361546-6.5189209-11.0150499-17.0534058-7.0764866-26.8336029
		c3.9277916-9.7510529,13.5426235-15.479248,23.9329624-14.2913361l35.7091522,4.1576843
		c3.2528152,0.3716736,6.2291794-1.0275879,7.9920197-3.7386322c0.7970428-1.22435,2.4126816-4.4819946,0.2800446-8.3007812
		l-17.4776001-31.3848267c-5.0874557-9.1680298-3.6549301-19.9320755,3.6441574-27.4384918
		c7.3421707-7.5537796,18.4433899-9.1971741,27.6166153-4.1066666l31.400795,17.468811
		c2.83992,1.5887375,6.1430054,1.4284058,8.8249664-0.4117584c1.2207031-0.8380966,4.0067749-3.2612839,3.4861755-7.6448822
		l-4.1611633-35.7101212c-1.2135162-10.4652519,4.2473297-19.8737755,13.9124298-23.9695072
		c9.632782-4.0811567,20.4862671-1.300869,26.9703674,6.9452534l22.2957764,28.1053238
		c1.9890289,2.4960632,5.0731049,3.6038055,8.2182007,2.9661255c3.1199799-0.630394,5.5075226-2.8130836,6.3835602-5.841156
		l9.8230743-34.5149231C230.730835,6.7484841,239.6204376,0,250,0c10.3795776,0,19.269165,6.7484841,22.119873,16.7946892
		l9.8338318,34.5513649c0.8473206,2.9916344,3.2097168,5.1561012,6.3117371,5.7937851
		c3.2061462,0.670475,6.2830505-0.4554863,8.286438-2.9697723L318.858429,26.053812
		c6.5056152-8.2206154,17.3591003-10.9863272,27.0062561-6.8723755c9.6292114,4.0993767,15.068512,13.4860363,13.8585815,23.9184933
		l-4.1575928,35.6882553c-0.5026245,4.4163971,2.3121643,6.8505173,3.5436401,7.6886139
		c2.6676025,1.8255844,5.9383545,1.971344,8.7603455,0.3935394l31.3936157-17.468811
		c9.1947632-5.0905151,20.2852173-3.4434738,27.6273804,4.1030197c7.2990723,7.5064163,8.7316284,18.270462,3.6477356,27.4275589
		l-17.4776001,31.3884659c-2.1505737,3.8552399-0.5097961,7.1347351,0.2980042,8.3700256
		c1.7520752,2.6855469,4.6925354,4.0592804,7.9525146,3.6803284l35.7235413-4.1613312
		c10.3903198-1.206131,20.0661926,4.5585022,23.9868164,14.3423462c3.9205933,9.7802124,1.1129761,20.2964783-7.151886,26.7971802
		l-28.1156616,22.286026c-3.5005493,2.7766418-3.2276917,6.4569702-2.9476624,7.9145203
		c0.5995789,3.1118927,2.8004456,5.5095673,5.8881226,6.3986816l34.5315247,9.8166351
		C493.2574158,230.614502,500,239.5493164,500,250s-6.7425842,19.385498-16.7774963,22.2350159l-34.5674438,9.8239136
		c-3.0517578,0.8672485-5.2382507,3.2357788-5.8414001,6.3403931c-0.2872314,1.4648438-0.5744629,5.1743164,2.9476318,7.9728088
		l28.133606,22.3006287c8.2325745,6.5152588,11.0150452,17.0461121,7.0765076,26.8262939
		c-3.9277954,9.7510681-13.5354614,15.5229797-23.9329834,14.2913513l-35.712738-4.1613159
		c-3.2169189-0.3352356-6.2255859,1.0348511-7.9884338,3.7459106c-0.7970276,1.2243347-2.4126892,4.4819946-0.2800293,8.3007812
		l17.4776001,31.3811951c5.0874634,9.1679993,3.6549072,19.9320679-3.644165,27.4384766
		c-7.3349915,7.5501404-18.4362183,9.1971741-27.6166077,4.110321l-31.4007874-17.4761047
		c-2.8399353-1.5887451-6.1502075-1.4356995-8.8249817,0.4154053c-1.2243042,0.8380737-4.0067749,3.2649231-3.4861755,7.6448669
		l4.1611633,35.7101135c1.213501,10.465271-4.247345,19.8737793-13.9124451,23.9768066
		c-9.6543274,4.0811462-20.482666,1.2899475-26.9703369-6.9525452l-22.2958069-28.1016846
		c-1.9854126-2.4924011-5.0623169-3.6074524-8.2182007-2.9661255c-3.1199646,0.62677-5.5075073,2.8130798-6.3835449,5.8375244
		l-9.8230591,34.5149231C269.269165,493.2515259,260.3795776,500,250,500z M209.975296,427.7562256
		c1.5474243,0,3.1092072,0.1530457,4.67099,0.4737244c8.4515686,1.7344971,15.1690216,7.9801025,17.5314484,16.2881775
		l9.833847,34.5513611c1.2566071,4.4309692,4.9510193,6.005127,7.9884186,6.005127s6.7318115-1.5741577,7.9884338-5.9978333
		l9.8338318-34.5586548c2.4270325-8.3590698,9.1804199-14.5901184,17.6319885-16.3027649
		c8.4802856-1.7053223,17.1257324,1.4429932,22.5363159,8.2424927l22.3209229,28.1308289
		c2.9081421,3.6948853,6.9903259,3.7094727,9.8302612,2.5142822c1.3320007-0.5684509,5.6260071-2.8422241,4.9761658-8.4538269
		l-4.1575928-35.6882629c-1.0196533-8.5558472,2.7537842-16.9076538,9.8482056-21.7758789
		c7.2380676-4.9702759,16.4902649-5.400238,24.1376038-1.1441956l31.3900452,17.468811
		c4.1216431,2.2883606,7.9237976,0.7287903,10.0887451-1.5012817c0.9909058-1.0202942,4.0175476-4.7224731,1.3032837-9.6125793
		l-17.4704285-31.3666077c-4.1898804-7.5064087-3.8847046-16.6598511,0.8042297-23.8747559
		c4.7894592-7.3679504,13.1656494-11.3179321,21.9187927-10.3559265l35.7307129,4.1686096
		c4.6422424,0.5174255,7.5108948-2.2810974,8.6490479-5.1087341c0.5313416-1.3263855,1.9208069-5.9104004-2.5132141-9.4158325
		l-28.1479797-22.3151855c-6.8000488-5.4075317-9.9846497-14.0726929-8.311554-22.62854
		c1.6802673-8.6068726,7.9273682-15.4282227,16.3035583-17.8113403l34.5710449-9.8239136
		c5.5972595-1.5887451,6.0317078-6.4205475,6.0317078-7.8635254s-0.4344482-6.2747803-6.0281372-7.8635101l-34.5746155-9.8239288
		c-8.4228516-2.4414062-14.6628113-9.2992096-16.3179321-17.9060822
		c-1.6407776-8.5121155,1.5474243-17.1481476,8.3187256-22.5265198l28.1479797-22.3115387
		c4.4627686-3.5090637,3.087677-8.0748596,2.559906-9.3903046c-1.1417236-2.8422394-4.0319214-5.6954041-8.6957092-5.1378937
		l-35.7019958,4.1576843c-8.6346741,1.0385132-17.079071-2.8896027-21.8972473-10.2539062
		c-4.7356262-7.2404022-5.0587463-16.426651-0.8437195-23.976799l17.4703979-31.3702469
		c2.7106934-4.8791656-0.3159485-8.5849991-1.3068542-9.6052933c-2.1757202-2.2337036-5.9671021-3.8005753-10.0995178-1.4976349
		l-31.3792725,17.4615173c-7.6150208,4.2487793-16.8313293,3.833374-24.0334778-1.0858765
		c-7.1159973-4.8500214-10.928894-13.2054596-9.9559021-21.8086853l4.1611633-35.7101173
		c0.6462402-5.5715103-3.6190491-7.8416519-4.9402771-8.406456c-2.8542786-1.2134151-6.9508362-1.2061272-9.8625488,2.4632683
		l-22.3173218,28.1308327c-5.4321289,6.8286476-14.1242676,9.9478188-22.644043,8.2315483
		c-8.4515991-1.7344971-15.1690369-7.9764786-17.5314636-16.2881889l-9.8338318-34.5550079
		c-1.2566223-4.4273262-4.9510345-6.0014858-7.9884338-6.0014858s-6.7318115,1.5741596-7.9884186,6.0014858l-9.833847,34.5586548
		c-2.4270477,8.3590851-9.1768188,14.5901337-17.6319733,16.299118c-8.4946594,1.7016983-17.1329346-1.4429779-22.5363464-8.2351913
		l-22.3209076-28.1381149c-2.915329-3.6985493-6.9867249-3.7131252-9.833847-2.510643
		c-1.3320007,0.5648041-5.622406,2.8422356-4.9725647,8.4501839l4.1575775,35.6882591
		c1.0196381,8.5558472-2.7537689,16.911293-9.8518066,21.7831726c-7.2308655,4.9666214-16.483078,5.3965988-24.1376038,1.1296082
		l-31.3864288-17.461525c-4.1396179-2.2920074-7.9237976-0.7251358-10.0887527,1.5012817
		c-0.990921,1.0202942-4.0175476,4.7261276-1.3032837,9.6162262l17.4704208,31.3666077
		c4.1898804,7.5100479,3.8847046,16.6598587-0.8006363,23.8711166
		c-4.7966461,7.3715973-13.1979599,11.3580017-21.9223938,10.3522949l-35.727108-4.1576843
		c-4.6314926-0.5757294-7.5145073,2.2883759-8.649044,5.1051025c-0.5349541,1.3227234-1.9244003,5.9103851,2.5096245,9.4194489
		l28.1479759,22.3078918c6.8000336,5.4075317,9.9846344,14.0727081,8.311554,22.6285553
		c-1.6802597,8.6068726-7.9273911,15.4282379-16.303566,17.8113403l-34.5710297,9.8239288
		c-5.5972834,1.5887299-6.0317106,6.4205322-6.0317106,7.8635101s0.4344273,6.2747803,6.0281191,7.8635254l34.5746231,9.8239136
		c8.4228516,2.4414062,14.662796,9.2992249,16.3179245,17.9060669c1.64077,8.512146-1.5474167,17.1481628-8.3187294,22.5265503
		l-28.1479797,22.315155c-4.4627457,3.5054321-3.0876617,8.0748901-2.5598869,9.3866882
		c1.141716,2.8422241,4.0103683,5.6625977,8.6957169,5.1451721l35.6983871-4.1613464
		c8.7136612-1.0348511,17.0934296,2.8932495,21.9008484,10.2539062c4.735611,7.2440796,5.0551453,16.4266663,0.8437195,23.9768066
		l-17.4704132,31.3666077c-2.7106781,4.8828125,0.3159485,8.5849915,1.3068695,9.6052856
		c2.1721344,2.230072,5.9563141,3.796936,10.0995255,1.493988l31.3792496-17.4615173
		c7.6078568-4.2414856,16.8169785-3.8260803,24.0406723,1.0931702c7.1087952,4.8536682,10.9217072,13.2054749,9.9487305,21.8050537
		l-4.1611633,35.7101135c-0.6462555,5.5751343,3.6154327,7.8416443,4.9402618,8.4100952
		c2.8614655,1.2024841,6.9508209,1.2024841,9.8625641-2.4632568l22.3173218-28.1308289
		C196.4434509,430.8826904,203.0496063,427.7562256,209.975296,427.7562256z"/>
</g>
</svg>
