<?xml version="1.0" encoding="utf-8"?>
<!-- Generator: Adobe Illustrator 26.3.1, SVG Export Plug-In . SVG Version: 6.00 Build 0)  -->
<svg version="1.1" id="Calque_1" xmlns="http://www.w3.org/2000/svg" xmlns:xlink="http://www.w3.org/1999/xlink" x="0px" y="0px"
	 viewBox="0 0 500 500" style="enable-background:new 0 0 500 500;" xml:space="preserve">
<g>
	<path d="M328.5939941,0H171.4059906c-34.6583252,0-62.8533554,28.4648685-62.8533554,63.4540749v373.0950623
		C108.5526352,471.5383301,136.7476654,500,171.4059906,500h157.1880035c34.6583557,0,62.853363-28.4616699,62.853363-63.4508667
		V63.4540749C391.4473572,28.4648685,363.2523499,0,328.5939941,0z M171.4059906,13.1578951h157.1880035
		c27.4015808,0,49.6954651,22.563736,49.6954651,50.2961807V381.578949H121.7105255V63.4540749
		C121.7105255,35.7216301,144.004425,13.1578951,171.4059906,13.1578951z M328.5939941,486.8421021H171.4059906
		c-27.4015656,0-49.6954651-22.5637207-49.6954651-50.2929688v-41.8122864h256.5789185v41.8122864
		C378.2894592,464.2783813,355.995575,486.8421021,328.5939941,486.8421021z"/>
	<path d="M213.8157959,46.0526314h72.3684082c3.6332092,0,6.578949-2.9457474,6.578949-6.578949
		c0-3.6331978-2.9457397-6.5789452-6.578949-6.5789452h-72.3684082c-3.6332092,0-6.578949,2.9457474-6.578949,6.5789452
		C207.2368469,43.106884,210.1825867,46.0526314,213.8157959,46.0526314z"/>
	<path d="M250,414.4736938c-12.6953125,0-23.0263214,10.3309937-23.0263214,23.0263062S237.3046875,460.5263062,250,460.5263062
		S273.0263062,450.1953125,273.0263062,437.5S262.6953125,414.4736938,250,414.4736938z M250,447.3684082
		c-5.4417725,0-9.8684235-4.4266357-9.8684235-9.8684082s4.426651-9.8684082,9.8684235-9.8684082
		s9.8684082,4.4266357,9.8684082,9.8684082S255.4417725,447.3684082,250,447.3684082z"/>
</g>
</svg>
