<?xml version="1.0" encoding="utf-8"?>
<!-- Generator: Adobe Illustrator 26.3.1, SVG Export Plug-In . SVG Version: 6.00 Build 0)  -->
<svg version="1.1" id="Calque_1" xmlns="http://www.w3.org/2000/svg" xmlns:xlink="http://www.w3.org/1999/xlink" x="0px" y="0px"
	 viewBox="0 0 500 500" style="enable-background:new 0 0 500 500;" xml:space="preserve">
<g>
	<path d="M451.6265564,400.9893799c-0.9668884,0-1.9337769-0.2803955-2.7749939-0.8508606
		c-30.618927-20.7156067-67.984375-42.2240601-74.9991455-40.7253723
		c-37.4331055,11.8830566-80.2880249,18.1726685-123.8753815,18.1726685C112.1397705,377.5858154,0,315.1006165,0,238.3006439
		c0-0.2223816,0.0145033-0.4447632,0.04351-0.662323c0.6405638-76.502655,112.533783-138.6276855,249.9770508-138.6276855
		C387.8602295,99.0106277,500,161.4958191,500,238.3006439c0,31.9750214-18.6706238,61.9582367-53.9862366,86.7154388
		c-3.6983643,4.2736511,1.0974121,36.8771362,10.3747253,69.6740112c0.5656128,2.0014648-0.178894,4.1431274-1.8612671,5.3613892
		C453.6618347,400.6751404,452.6466064,400.9893799,451.6265564,400.9893799z M373.6759644,349.5895691
		c13.7008057,0,47.7087097,20.6527405,69.746521,35.0497131c-6.7536926-26.3912354-13.1593323-60.7012939-3.0843506-67.7354126
		c32.550293-22.818573,49.7609253-49.9978027,49.7609253-78.6032257c0-71.3443146-107.6993408-129.3890686-240.0785065-129.3890686
		S9.9420347,166.9563293,9.9420347,238.3006439c0,0.2078857-0.0120859,0.4157562-0.0386753,0.6188049
		c0.6163921,71.0615082,108.0740051,128.7654266,240.0736694,128.7654266c42.5842133,0,84.4021454-6.1300659,120.9311981-17.723053
		C371.7035217,349.7104187,372.6317139,349.5895691,373.6759644,349.5895691z"/>
</g>
</svg>
